<svg width="31" height="30" viewBox="0 0 31 30" fill="none" xmlns="http://www.w3.org/2000/svg">
<rect x="15" y="14.5" width="1" height="1" fill="white" stroke="white"/>
<rect x="15" y="10.5" width="1" height="1" fill="white" stroke="white"/>
<rect x="11" y="14.5" width="1" height="1" fill="white" stroke="white"/>
<rect x="7" y="14.5" width="1" height="1" fill="white" stroke="white"/>
<rect x="15" y="6.5" width="1" height="1" fill="white" stroke="white"/>
<rect x="15" y="18.5" width="1" height="1" fill="white" stroke="white"/>
<rect x="15" y="22.5" width="1" height="1" fill="white" stroke="white"/>
<rect x="19" y="14.5" width="1" height="1" fill="white" stroke="white"/>
<rect x="19" y="18.5" width="1" height="1" fill="white" stroke="white"/>
<rect x="19" y="22.5" width="1" height="1" fill="white" stroke="white"/>
<rect x="23" y="14.5" width="1" height="1" fill="white" stroke="white"/>
<rect x="23" y="18.5" width="1" height="1" fill="white" stroke="white"/>
<rect x="23" y="22.5" width="1" height="1" fill="white" stroke="white"/>
<mask id="path-14-inside-1_5568_10466" fill="white">
<rect x="6.5" y="6" width="6" height="6" rx="1"/>
</mask>
<rect x="6.5" y="6" width="6" height="6" rx="1" stroke="white" stroke-width="4" mask="url(#path-14-inside-1_5568_10466)"/>
<mask id="path-15-inside-2_5568_10466" fill="white">
<rect x="6.5" y="18" width="6" height="6" rx="1"/>
</mask>
<rect x="6.5" y="18" width="6" height="6" rx="1" stroke="white" stroke-width="4" mask="url(#path-15-inside-2_5568_10466)"/>
<mask id="path-16-inside-3_5568_10466" fill="white">
<rect x="18.5" y="6" width="6" height="6" rx="1"/>
</mask>
<rect x="18.5" y="6" width="6" height="6" rx="1" stroke="white" stroke-width="4" mask="url(#path-16-inside-3_5568_10466)"/>
</svg>
